<svg width="114" height="29" viewBox="0 0 114 29" fill="none" xmlns="http://www.w3.org/2000/svg">
<path d="M6.888 23.436C6.70133 23.436 6.45867 23.408 6.16 23.352C5.86133 23.296 5.55333 23.184 5.236 23.016C4.93733 22.8667 4.68533 22.624 4.48 22.288C4.27467 21.952 4.172 21.504 4.172 20.944C4.172 20.4773 4.26533 19.8707 4.452 19.124C4.63867 18.3587 4.956 17.248 5.404 15.792C5.74 14.6907 6.06667 13.608 6.384 12.544C6.72 11.4613 6.99067 10.3413 7.196 9.184C7.42 8.02667 7.532 6.79467 7.532 5.488C7.532 4.72267 7.48533 4.07867 7.392 3.556C7.29867 3.03333 7.12133 2.64133 6.86 2.38C6.61733 2.1 6.272 1.96 5.824 1.96C5.376 1.96 4.984 2.08133 4.648 2.324C4.312 2.56667 4.032 2.89333 3.808 3.304C3.584 3.696 3.416 4.13467 3.304 4.62C3.192 5.10533 3.136 5.59067 3.136 6.076C3.136 6.89733 3.276 7.57867 3.556 8.12C2.64133 8.12 1.97867 7.90533 1.568 7.476C1.15733 7.04667 0.952 6.51467 0.952 5.88C0.952 5.32 1.092 4.74133 1.372 4.144C1.652 3.54667 2.03467 3.00533 2.52 2.52C3.024 2.016 3.60267 1.61467 4.256 1.316C4.90933 0.998666 5.60933 0.839999 6.356 0.839999C7.62533 0.839999 8.58667 1.30667 9.24 2.24C9.912 3.17333 10.248 4.49867 10.248 6.216C10.248 7.504 10.0707 8.848 9.716 10.248C9.38 11.6293 8.95067 13.1413 8.428 14.784C8.24133 15.3813 8.01733 16.044 7.756 16.772C7.51333 17.4813 7.28933 18.2187 7.084 18.984C6.89733 19.7307 6.804 20.4773 6.804 21.224C6.804 21.5787 6.84133 21.8213 6.916 21.952C7.00933 22.1013 7.17733 22.176 7.42 22.176C7.924 22.176 8.456 21.9613 9.016 21.532C9.59467 21.1027 10.1733 20.524 10.752 19.796C11.3307 19.068 11.8813 18.256 12.404 17.36C12.9453 16.464 13.44 15.5493 13.888 14.616C14.336 13.664 14.7093 12.768 15.008 11.928C15.3067 11.0693 15.5027 10.3227 15.596 9.688C16.3053 9.688 16.856 9.884 17.248 10.276C17.64 10.668 17.836 11.0413 17.836 11.396C17.836 11.5827 17.752 11.9 17.584 12.348C17.4347 12.796 17.1733 13.4587 16.8 14.336C16.5013 15.0453 16.1933 15.8013 15.876 16.604C15.5587 17.388 15.288 18.172 15.064 18.956C14.8587 19.7213 14.756 20.44 14.756 21.112C14.756 21.4853 14.8027 21.756 14.896 21.924C15.008 22.092 15.204 22.176 15.484 22.176C16.0067 22.176 16.604 21.9147 17.276 21.392C17.9667 20.888 18.676 20.1973 19.404 19.32C20.132 18.424 20.8413 17.4253 21.532 16.324C22.2227 15.204 22.848 14.0467 23.408 12.852C23.968 11.6573 24.4067 10.4813 24.724 9.324C25.06 8.16667 25.228 7.112 25.228 6.16C25.228 5.13333 25.0413 4.40533 24.668 3.976C24.3133 3.54667 23.8653 3.23867 23.324 3.052C23.66 2.51067 24.0147 2.11867 24.388 1.876C24.78 1.61467 25.1253 1.484 25.424 1.484C25.8533 1.484 26.292 1.764 26.74 2.324C27.2067 2.86533 27.44 3.724 27.44 4.9C27.44 5.88933 27.244 7.028 26.852 8.316C26.4787 9.604 25.956 10.948 25.284 12.348C24.6307 13.7293 23.8747 15.0827 23.016 16.408C22.176 17.7147 21.2707 18.9 20.3 19.964C19.348 21.028 18.3867 21.868 17.416 22.484C16.4453 23.1187 15.5213 23.436 14.644 23.436C14.1587 23.436 13.72 23.3333 13.328 23.128C12.9547 22.9413 12.656 22.6613 12.432 22.288C12.2267 21.9333 12.124 21.5133 12.124 21.028C12.124 20.804 12.152 20.5707 12.208 20.328C12.264 20.0853 12.3293 19.8427 12.404 19.6C11.4893 20.7573 10.5653 21.6813 9.632 22.372C8.71733 23.0813 7.80267 23.436 6.888 23.436ZM28.1612 21.896C27.3026 21.896 26.6679 21.6347 26.2572 21.112C25.8466 20.608 25.6412 19.9827 25.6412 19.236C25.6412 18.2653 25.8092 17.36 26.1452 16.52C26.4999 15.68 26.9386 14.924 27.4612 14.252C28.0026 13.5613 28.5812 12.9733 29.1972 12.488C29.8132 12.0027 30.3919 11.6293 30.9332 11.368C31.4932 11.1067 31.9506 10.976 32.3052 10.976C32.3986 10.976 32.5292 10.9947 32.6972 11.032C32.8652 11.0693 32.9866 11.1627 33.0612 11.312C33.1172 11.2747 33.1732 11.2467 33.2292 11.228C33.3039 11.2093 33.3786 11.2 33.4532 11.2C33.9759 11.2 34.3119 11.3493 34.4612 11.648C34.6292 11.9467 34.7132 12.2733 34.7132 12.628C34.7132 12.9453 34.6199 13.3093 34.4332 13.72C34.2652 14.1307 34.0879 14.588 33.9012 15.092C33.7332 15.5773 33.6492 16.1373 33.6492 16.772C33.6492 17.108 33.7426 17.3693 33.9292 17.556C34.1346 17.724 34.3679 17.808 34.6292 17.808C35.3572 17.808 35.9546 17.6493 36.4212 17.332C36.8879 16.996 37.2706 16.5573 37.5692 16.016C37.8679 15.4747 38.1199 14.8867 38.3252 14.252C38.5306 13.5987 38.7266 12.9547 38.9132 12.32C38.7452 12.1147 38.6612 11.8813 38.6612 11.62C38.6612 11.2093 38.7452 10.8547 38.9132 10.556C39.0812 10.2387 39.2679 9.996 39.4732 9.828C39.6972 9.64133 39.8746 9.548 40.0052 9.548C40.3039 9.548 40.4812 9.66 40.5372 9.884C40.5932 10.108 40.6212 10.2853 40.6212 10.416C40.6212 10.5093 40.5652 10.6773 40.4532 10.92C40.3599 11.1627 40.3132 11.3307 40.3132 11.424C40.3132 11.6107 40.4626 11.8067 40.7612 12.012C41.0786 12.1987 41.4332 12.4227 41.8252 12.684C42.2172 12.9453 42.5626 13.2813 42.8612 13.692C43.1786 14.084 43.3372 14.5787 43.3372 15.176C43.3372 15.736 43.2252 16.296 43.0012 16.856C42.7772 17.416 42.5532 17.9387 42.3292 18.424C42.1052 18.9093 41.9932 19.3293 41.9932 19.684C41.9932 19.964 42.0586 20.1507 42.1892 20.244C42.3386 20.3187 42.5066 20.356 42.6932 20.356C43.1226 20.356 43.5706 20.2253 44.0372 19.964C44.5226 19.684 44.9892 19.3293 45.4372 18.9C45.8852 18.4707 46.2866 18.0227 46.6412 17.556C46.9959 17.0707 47.2572 16.632 47.4252 16.24L47.9852 16.632C47.6119 17.4347 47.1172 18.228 46.5012 19.012C45.8852 19.796 45.1852 20.4493 44.4012 20.972C43.6359 21.4947 42.8332 21.756 41.9932 21.756C41.3026 21.756 40.7332 21.5693 40.2852 21.196C39.8559 20.8227 39.6412 20.3467 39.6412 19.768C39.6412 19.2267 39.7626 18.6573 40.0052 18.06C40.2479 17.4627 40.4906 16.884 40.7332 16.324C40.9759 15.764 41.0972 15.26 41.0972 14.812C41.0972 14.3267 40.9386 13.9347 40.6212 13.636C40.3039 13.3187 39.9679 13.0667 39.6132 12.88C39.3892 13.552 39.1372 14.2427 38.8572 14.952C38.5959 15.6613 38.2692 16.3147 37.8772 16.912C37.4852 17.4907 36.9906 17.9667 36.3932 18.34C35.7959 18.6947 35.0492 18.872 34.1532 18.872C33.9106 18.872 33.6306 18.8347 33.3132 18.76C33.0146 18.6853 32.7626 18.6107 32.5572 18.536C32.0532 19.5253 31.3906 20.3373 30.5692 20.972C29.7666 21.588 28.9639 21.896 28.1612 21.896ZM28.6932 20.496C28.9359 20.496 29.2346 20.3747 29.5892 20.132C29.9626 19.8893 30.3266 19.572 30.6812 19.18C31.0546 18.7693 31.3439 18.34 31.5492 17.892C31.1572 17.3693 30.9612 16.5853 30.9612 15.54C30.9612 15.316 30.9892 15.0173 31.0452 14.644C31.1199 14.2707 31.2132 13.888 31.3252 13.496C31.4559 13.0853 31.6052 12.74 31.7732 12.46C31.3999 12.8147 31.0172 13.216 30.6252 13.664C30.2519 14.0933 29.8972 14.5507 29.5612 15.036C29.2252 15.5027 28.9266 15.9787 28.6652 16.464C28.4039 16.9307 28.1986 17.3973 28.0492 17.864C27.8999 18.312 27.8252 18.7413 27.8252 19.152C27.8252 19.656 27.8999 20.0107 28.0492 20.216C28.2172 20.4027 28.4319 20.496 28.6932 20.496ZM49.4998 22.288C48.6225 22.288 47.9225 22.0453 47.3998 21.56C46.8958 21.0747 46.6438 20.3467 46.6438 19.376C46.6438 18.8347 46.7185 18.1907 46.8678 17.444C47.0172 16.6973 47.2132 15.904 47.4558 15.064C47.7172 14.2053 47.9972 13.3653 48.2958 12.544C48.1278 12.488 47.9692 12.4413 47.8198 12.404C47.6892 12.348 47.5118 12.2733 47.2878 12.18V11.312C47.6238 11.368 47.8758 11.424 48.0438 11.48C48.2118 11.5173 48.4172 11.5547 48.6598 11.592C49.1825 10.2667 49.7425 9.044 50.3398 7.924C50.9372 6.804 51.5158 5.908 52.0758 5.236C52.6358 4.564 53.1212 4.228 53.5318 4.228C53.7372 4.228 53.9238 4.30267 54.0918 4.452C54.2598 4.60133 54.3438 4.76933 54.3438 4.956C54.3438 5.18 54.2318 5.544 54.0078 6.048C53.7838 6.552 53.4945 7.12133 53.1398 7.756C52.8038 8.372 52.4585 8.988 52.1038 9.604C51.7678 10.22 51.4598 10.752 51.1798 11.2C50.9185 11.648 50.7598 11.9373 50.7038 12.068C51.1892 12.1427 51.6372 12.208 52.0478 12.264C52.4585 12.3013 52.8692 12.32 53.2798 12.32C53.8212 12.32 54.3812 12.2827 54.9598 12.208C55.5385 12.1333 56.1825 12.0307 56.8918 11.9C57.3958 10.556 57.9558 9.24 58.5718 7.952C59.1878 6.64533 59.8132 5.47867 60.4478 4.452C61.1012 3.40667 61.7172 2.576 62.2958 1.96C62.8932 1.32533 63.4158 1.008 63.8638 1.008C64.2372 1.008 64.5265 1.22267 64.7318 1.652C64.9372 2.06267 65.0398 2.51067 65.0398 2.996C65.0398 3.612 64.8812 4.35867 64.5638 5.236C64.2465 6.11333 63.8078 7.01867 63.2478 7.952C62.6878 8.88533 62.0252 9.76267 61.2598 10.584C60.5132 11.4053 59.7012 12.068 58.8238 12.572C58.5812 13.132 58.3572 13.832 58.1518 14.672C57.9652 15.4933 57.8158 16.296 57.7038 17.08C57.5918 17.864 57.5358 18.4893 57.5358 18.956C57.9838 17.78 58.4878 16.6973 59.0478 15.708C59.6078 14.7187 60.2332 13.9253 60.9238 13.328C61.6332 12.7307 62.3985 12.432 63.2198 12.432C64.0785 12.432 64.7038 12.7213 65.0958 13.3C65.4878 13.86 65.6838 14.476 65.6838 15.148C65.6838 15.6893 65.5812 16.24 65.3758 16.8C65.1892 17.3413 64.9932 17.864 64.7878 18.368C64.6012 18.8533 64.5078 19.292 64.5078 19.684C64.5078 20.02 64.5825 20.2533 64.7318 20.384C64.8998 20.5147 65.0772 20.58 65.2638 20.58C65.6745 20.58 66.1505 20.3747 66.6918 19.964C67.2518 19.5347 67.7932 18.9747 68.3158 18.284C68.8572 17.5933 69.3052 16.856 69.6598 16.072L70.1918 16.576C69.7812 17.5093 69.2865 18.368 68.7078 19.152C68.1292 19.936 67.4852 20.552 66.7758 21C66.0852 21.4667 65.3478 21.7 64.5638 21.7C63.8545 21.7 63.3038 21.5133 62.9118 21.14C62.5385 20.7667 62.3518 20.3 62.3518 19.74C62.3518 19.348 62.4172 18.928 62.5478 18.48C62.6972 18.0133 62.8372 17.5373 62.9678 17.052C63.0985 16.5667 63.1638 16.1187 63.1638 15.708C63.1638 15.2787 63.0705 14.9707 62.8838 14.784C62.7158 14.5973 62.4825 14.504 62.1838 14.504C61.7358 14.504 61.3252 14.6907 60.9518 15.064C60.5972 15.4187 60.2705 15.8853 59.9718 16.464C59.6732 17.0427 59.3932 17.6587 59.1318 18.312C58.8705 18.9467 58.6092 19.5533 58.3478 20.132C58.1052 20.7107 57.8438 21.1773 57.5638 21.532C57.3025 21.9053 57.0132 22.092 56.6958 22.092C56.4158 22.092 56.1825 21.952 55.9958 21.672C55.8278 21.392 55.6878 21.056 55.5758 20.664C55.4638 20.272 55.3892 19.8893 55.3518 19.516C55.3145 19.124 55.2958 18.8253 55.2958 18.62C54.5492 19.7027 53.6718 20.58 52.6638 21.252C51.6745 21.9427 50.6198 22.288 49.4998 22.288ZM50.3118 20.888C51.2452 20.888 52.1785 20.4867 53.1118 19.684C54.0638 18.8627 54.8852 17.7427 55.5758 16.324C55.6878 15.764 55.8092 15.232 55.9398 14.728C56.0705 14.224 56.2385 13.6733 56.4438 13.076C55.8838 13.188 55.3425 13.272 54.8198 13.328C54.2972 13.384 53.7838 13.412 53.2798 13.412C52.7758 13.412 52.2718 13.384 51.7678 13.328C51.2638 13.272 50.7505 13.1973 50.2278 13.104C49.8172 14.0187 49.4812 14.9427 49.2198 15.876C48.9585 16.8093 48.8278 17.7613 48.8278 18.732C48.8278 19.4973 48.9305 20.048 49.1358 20.384C49.3598 20.72 49.7518 20.888 50.3118 20.888ZM59.3838 10.808C59.9252 10.3413 60.4292 9.81867 60.8958 9.24C61.3625 8.66133 61.7732 8.07333 62.1278 7.476C62.5012 6.86 62.8092 6.28133 63.0518 5.74C63.3132 5.18 63.4905 4.69467 63.5838 4.284C63.6398 4.02267 63.6678 3.81733 63.6678 3.668C63.5185 3.70533 63.2758 3.91067 62.9398 4.284C62.6225 4.65733 62.2492 5.17067 61.8198 5.824C61.3905 6.45867 60.9612 7.20533 60.5318 8.064C60.1025 8.904 59.7198 9.81867 59.3838 10.808ZM70.3323 28.84C69.8656 28.84 69.4269 28.6907 69.0163 28.392C68.6243 28.112 68.4283 27.6547 68.4283 27.02C68.4283 26.4227 68.6056 25.8813 68.9603 25.396C69.3149 24.9293 69.7723 24.4907 70.3323 24.08C70.8923 23.688 71.4896 23.324 72.1243 22.988C72.7776 22.6707 73.4029 22.372 74.0003 22.092C74.2056 21.5507 74.4296 20.8693 74.6723 20.048C74.9336 19.208 75.1576 18.4333 75.3443 17.724C74.7656 18.5267 74.1496 19.236 73.4963 19.852C72.8429 20.468 72.1149 20.776 71.3123 20.776C70.9763 20.776 70.6216 20.7107 70.2483 20.58C69.8749 20.4307 69.5576 20.188 69.2963 19.852C69.0536 19.4973 68.9323 19.0307 68.9323 18.452C68.9323 17.9667 69.0163 17.3787 69.1843 16.688C69.3709 15.9973 69.5949 15.3253 69.8563 14.672C70.1363 14 70.4256 13.4493 70.7243 13.02C71.0229 12.572 71.2843 12.348 71.5083 12.348C71.6203 12.348 71.7789 12.3947 71.9843 12.488C72.2083 12.5627 72.4229 12.6747 72.6283 12.824C72.8336 12.9547 72.9643 13.104 73.0203 13.272C72.8523 13.496 72.6656 13.8227 72.4603 14.252C72.2549 14.6627 72.0589 15.1293 71.8723 15.652C71.6856 16.156 71.5269 16.6507 71.3963 17.136C71.2843 17.6213 71.2283 18.0413 71.2283 18.396C71.2283 18.676 71.2843 18.9187 71.3963 19.124C71.5083 19.3293 71.7229 19.432 72.0403 19.432C72.4509 19.432 72.8709 19.264 73.3003 18.928C73.7483 18.592 74.1776 18.1627 74.5883 17.64C75.0176 17.1173 75.4003 16.5853 75.7363 16.044C75.7736 15.9133 75.8109 15.708 75.8483 15.428C75.8856 15.148 75.9509 14.8587 76.0443 14.56C76.1376 14.2427 76.2963 13.9533 76.5203 13.692C76.7629 13.4307 77.0989 13.3 77.5283 13.3C77.6776 13.3 77.8176 13.3093 77.9483 13.328C78.0789 13.3467 78.2376 13.3747 78.4243 13.412C78.4243 13.692 78.3216 14.2427 78.1163 15.064C77.9296 15.8667 77.6776 16.8 77.3603 17.864C77.0429 18.928 76.6883 19.992 76.2963 21.056C77.0803 20.7387 77.8923 20.216 78.7323 19.488C79.5909 18.7413 80.2816 17.6867 80.8043 16.324L81.2803 16.716C81.0003 17.6493 80.5709 18.4613 79.9923 19.152C79.4323 19.8427 78.7976 20.4307 78.0883 20.916C77.3789 21.4013 76.6603 21.8027 75.9323 22.12C75.4283 23.3333 74.8776 24.4533 74.2803 25.48C73.7016 26.5067 73.0856 27.3187 72.4323 27.916C71.7789 28.532 71.0789 28.84 70.3323 28.84ZM70.0523 27.804C70.4069 27.804 70.9016 27.4307 71.5363 26.684C72.1709 25.9373 72.8149 24.8173 73.4683 23.324C72.8709 23.6227 72.2643 23.968 71.6483 24.36C71.0509 24.7707 70.5469 25.2 70.1363 25.648C69.7256 26.096 69.5203 26.5533 69.5203 27.02C69.5203 27.2067 69.5576 27.384 69.6323 27.552C69.7256 27.72 69.8656 27.804 70.0523 27.804ZM82.2152 21.28C81.7672 21.28 81.4499 21.168 81.2632 20.944C81.0766 20.7013 80.9832 20.4587 80.9832 20.216C80.9832 20.0107 81.0766 19.796 81.2632 19.572C81.4499 19.3293 81.6832 19.1333 81.9632 18.984C82.2432 18.816 82.5046 18.732 82.7472 18.732C82.9526 18.732 83.1579 18.7973 83.3632 18.928C83.5686 19.04 83.6712 19.264 83.6712 19.6C83.6712 19.7493 83.6152 19.964 83.5032 20.244C83.3912 20.5053 83.2232 20.748 82.9992 20.972C82.7939 21.1773 82.5326 21.28 82.2152 21.28ZM93.0005 18.396V13.552C93.0005 12.6 93.3458 12.124 94.0365 12.124C94.6898 12.124 95.0165 12.5907 95.0165 13.524V22.344C95.0165 23.6507 94.3725 24.304 93.0845 24.304H89.2765C89.0151 24.304 88.8191 24.2667 88.6885 24.192C88.5765 24.136 88.5205 24.0053 88.5205 23.8C88.5205 23.464 88.8191 23.296 89.4165 23.296H92.3005C92.9911 23.296 93.3365 22.9227 93.3365 22.176C93.3365 21.392 92.9445 21 92.1605 21H90.4805H90.2005C88.9311 21 88.2965 20.3653 88.2965 19.096V13.412C88.2965 12.5533 88.6231 12.124 89.2765 12.124C89.9858 12.124 90.3405 12.6093 90.3405 13.58V18.424C90.3405 19.488 90.7231 20.02 91.4885 20.02H91.8805C92.6271 20.02 93.0005 19.4787 93.0005 18.396ZM104.34 19.068C104.34 19.7587 104.153 20.2533 103.78 20.552C103.425 20.8507 102.903 21 102.212 21H99.888C98.3947 21 97.648 20.356 97.648 19.068V14.224C97.648 13.6267 97.8254 13.1507 98.18 12.796C98.5347 12.4413 99.0854 12.264 99.832 12.264H102.212C102.903 12.264 103.425 12.4413 103.78 12.796C104.153 13.1507 104.34 13.636 104.34 14.252V19.068ZM102.324 18.34V14.924C102.324 13.8227 101.932 13.272 101.148 13.272H100.784C100.056 13.272 99.692 13.8693 99.692 15.064V18.368C99.692 19.488 100.065 20.048 100.812 20.048H101.232C101.96 20.048 102.324 19.4787 102.324 18.34ZM111.676 18.396V13.664C111.676 12.6933 112.002 12.208 112.656 12.208C113.346 12.208 113.692 12.6373 113.692 13.496V19.04C113.692 19.7493 113.505 20.2533 113.132 20.552C112.777 20.8507 112.254 21 111.564 21H109.156C108.409 21 107.858 20.86 107.504 20.58C107.149 20.2813 106.972 19.7867 106.972 19.096V13.524C106.972 12.6467 107.326 12.208 108.036 12.208C108.689 12.208 109.016 12.6933 109.016 13.664V18.424C109.016 19.488 109.398 20.02 110.164 20.02H110.556C111.302 20.02 111.676 19.4787 111.676 18.396Z" fill="#0F1117"/>
</svg>
